<svg width="291" height="158" viewBox="0 0 291 158" fill="none" xmlns="http://www.w3.org/2000/svg">
<rect width="291" height="158" rx="8" fill="#262E40"/>
<path d="M24.448 32V24.5H22.132V23.06H28.372V24.5H26.092V32H24.448ZM31.4882 32.144C30.8162 32.144 30.2282 31.992 29.7242 31.688C29.2202 31.384 28.8282 30.972 28.5482 30.452C28.2682 29.932 28.1282 29.356 28.1282 28.724C28.1282 28.068 28.2682 27.488 28.5482 26.984C28.8362 26.472 29.2242 26.068 29.7122 25.772C30.2082 25.476 30.7602 25.328 31.3682 25.328C31.8802 25.328 32.3282 25.412 32.7122 25.58C33.1042 25.748 33.4362 25.98 33.7082 26.276C33.9802 26.572 34.1882 26.912 34.3322 27.296C34.4762 27.672 34.5482 28.08 34.5482 28.52C34.5482 28.632 34.5402 28.748 34.5242 28.868C34.5162 28.988 34.4962 29.092 34.4642 29.18H29.4242V27.98H33.5762L32.8322 28.544C32.9042 28.176 32.8842 27.848 32.7722 27.56C32.6682 27.272 32.4922 27.044 32.2442 26.876C32.0042 26.708 31.7122 26.624 31.3682 26.624C31.0402 26.624 30.7482 26.708 30.4922 26.876C30.2362 27.036 30.0402 27.276 29.9042 27.596C29.7762 27.908 29.7282 28.288 29.7602 28.736C29.7282 29.136 29.7802 29.492 29.9162 29.804C30.0602 30.108 30.2682 30.344 30.5402 30.512C30.8202 30.68 31.1402 30.764 31.5002 30.764C31.8602 30.764 32.1642 30.688 32.4122 30.536C32.6682 30.384 32.8682 30.18 33.0122 29.924L34.2842 30.548C34.1562 30.86 33.9562 31.136 33.6842 31.376C33.4122 31.616 33.0882 31.804 32.7122 31.94C32.3442 32.076 31.9362 32.144 31.4882 32.144ZM37.6964 32.144C37.2404 32.144 36.8444 32.068 36.5084 31.916C36.1724 31.764 35.9124 31.548 35.7284 31.268C35.5444 30.98 35.4524 30.648 35.4524 30.272C35.4524 29.912 35.5324 29.592 35.6924 29.312C35.8524 29.024 36.1004 28.784 36.4364 28.592C36.7724 28.4 37.1964 28.264 37.7084 28.184L39.8444 27.836V29.036L38.0084 29.348C37.6964 29.404 37.4644 29.504 37.3124 29.648C37.1604 29.792 37.0844 29.98 37.0844 30.212C37.0844 30.436 37.1684 30.616 37.3364 30.752C37.5124 30.88 37.7284 30.944 37.9844 30.944C38.3124 30.944 38.6004 30.876 38.8484 30.74C39.1044 30.596 39.3004 30.4 39.4364 30.152C39.5804 29.904 39.6524 29.632 39.6524 29.336V27.656C39.6524 27.376 39.5404 27.144 39.3164 26.96C39.1004 26.768 38.8124 26.672 38.4524 26.672C38.1164 26.672 37.8164 26.764 37.5524 26.948C37.2964 27.124 37.1084 27.36 36.9884 27.656L35.7044 27.032C35.8324 26.688 36.0324 26.392 36.3044 26.144C36.5844 25.888 36.9124 25.688 37.2884 25.544C37.6644 25.4 38.0724 25.328 38.5124 25.328C39.0484 25.328 39.5204 25.428 39.9284 25.628C40.3364 25.82 40.6524 26.092 40.8764 26.444C41.1084 26.788 41.2244 27.192 41.2244 27.656V32H39.7364V30.884L40.0724 30.86C39.9044 31.14 39.7044 31.376 39.4724 31.568C39.2404 31.752 38.9764 31.896 38.6804 32C38.3844 32.096 38.0564 32.144 37.6964 32.144ZM42.6773 32V25.472H44.1533V26.984L43.9853 26.732C44.1053 26.26 44.3453 25.908 44.7053 25.676C45.0653 25.444 45.4893 25.328 45.9773 25.328C46.5133 25.328 46.9853 25.468 47.3933 25.748C47.8013 26.028 48.0653 26.396 48.1853 26.852L47.7413 26.888C47.9413 26.368 48.2413 25.98 48.6413 25.724C49.0413 25.46 49.5013 25.328 50.0213 25.328C50.4853 25.328 50.8973 25.432 51.2573 25.64C51.6253 25.848 51.9133 26.14 52.1213 26.516C52.3293 26.884 52.4333 27.312 52.4333 27.8V32H50.8613V28.172C50.8613 27.884 50.8093 27.636 50.7053 27.428C50.6013 27.22 50.4573 27.06 50.2733 26.948C50.0893 26.828 49.8653 26.768 49.6013 26.768C49.3533 26.768 49.1333 26.828 48.9413 26.948C48.7493 27.06 48.6013 27.22 48.4973 27.428C48.3933 27.636 48.3413 27.884 48.3413 28.172V32H46.7693V28.172C46.7693 27.884 46.7173 27.636 46.6133 27.428C46.5093 27.22 46.3613 27.06 46.1693 26.948C45.9853 26.828 45.7653 26.768 45.5093 26.768C45.2613 26.768 45.0413 26.828 44.8493 26.948C44.6573 27.06 44.5093 27.22 44.4053 27.428C44.3013 27.636 44.2493 27.884 44.2493 28.172V32H42.6773ZM58.3801 32.144C57.6841 32.144 57.0761 31.98 56.5561 31.652C56.0441 31.316 55.6921 30.864 55.5001 30.296L56.6761 29.732C56.8441 30.1 57.0761 30.388 57.3721 30.596C57.6761 30.804 58.0121 30.908 58.3801 30.908C58.6681 30.908 58.8961 30.844 59.0641 30.716C59.2321 30.588 59.3161 30.42 59.3161 30.212C59.3161 30.084 59.2801 29.98 59.2081 29.9C59.1441 29.812 59.0521 29.74 58.9321 29.684C58.8201 29.62 58.6961 29.568 58.5601 29.528L57.4921 29.228C56.9401 29.068 56.5201 28.824 56.2321 28.496C55.9521 28.168 55.8121 27.78 55.8121 27.332C55.8121 26.932 55.9121 26.584 56.1121 26.288C56.3201 25.984 56.6041 25.748 56.9641 25.58C57.3321 25.412 57.7521 25.328 58.2241 25.328C58.8401 25.328 59.3841 25.476 59.8561 25.772C60.3281 26.068 60.6641 26.484 60.8641 27.02L59.6641 27.584C59.5521 27.288 59.3641 27.052 59.1001 26.876C58.8361 26.7 58.5401 26.612 58.2121 26.612C57.9481 26.612 57.7401 26.672 57.5881 26.792C57.4361 26.912 57.3601 27.068 57.3601 27.26C57.3601 27.38 57.3921 27.484 57.4561 27.572C57.5201 27.66 57.6081 27.732 57.7201 27.788C57.8401 27.844 57.9761 27.896 58.1281 27.944L59.1721 28.256C59.7081 28.416 60.1201 28.656 60.4081 28.976C60.7041 29.296 60.8521 29.688 60.8521 30.152C60.8521 30.544 60.7481 30.892 60.5401 31.196C60.3321 31.492 60.0441 31.724 59.6761 31.892C59.3081 32.06 58.8761 32.144 58.3801 32.144ZM65.1561 32.144C64.4841 32.144 63.8961 31.992 63.3921 31.688C62.8881 31.384 62.4961 30.972 62.2161 30.452C61.9361 29.932 61.7961 29.356 61.7961 28.724C61.7961 28.068 61.9361 27.488 62.2161 26.984C62.5041 26.472 62.8921 26.068 63.3801 25.772C63.8761 25.476 64.4281 25.328 65.0361 25.328C65.5481 25.328 65.9961 25.412 66.3801 25.58C66.7721 25.748 67.1041 25.98 67.3761 26.276C67.6481 26.572 67.8561 26.912 68.0001 27.296C68.1441 27.672 68.2161 28.08 68.2161 28.52C68.2161 28.632 68.2081 28.748 68.1921 28.868C68.1841 28.988 68.1641 29.092 68.1321 29.18H63.0921V27.98H67.2441L66.5001 28.544C66.5721 28.176 66.5521 27.848 66.4401 27.56C66.3361 27.272 66.1601 27.044 65.9121 26.876C65.6721 26.708 65.3801 26.624 65.0361 26.624C64.7081 26.624 64.4161 26.708 64.1601 26.876C63.9041 27.036 63.7081 27.276 63.5721 27.596C63.4441 27.908 63.3961 28.288 63.4281 28.736C63.3961 29.136 63.4481 29.492 63.5841 29.804C63.7281 30.108 63.9361 30.344 64.2081 30.512C64.4881 30.68 64.8081 30.764 65.1681 30.764C65.5281 30.764 65.8321 30.688 66.0801 30.536C66.3361 30.384 66.5361 30.18 66.6801 29.924L67.9521 30.548C67.8241 30.86 67.6241 31.136 67.3521 31.376C67.0801 31.616 66.7561 31.804 66.3801 31.94C66.0121 32.076 65.6041 32.144 65.1561 32.144ZM69.4078 32V25.472H70.8838V26.756L70.7638 26.528C70.9158 26.136 71.1638 25.84 71.5078 25.64C71.8598 25.432 72.2678 25.328 72.7318 25.328C73.2118 25.328 73.6358 25.432 74.0038 25.64C74.3798 25.848 74.6718 26.14 74.8798 26.516C75.0878 26.884 75.1918 27.312 75.1918 27.8V32H73.6198V28.172C73.6198 27.884 73.5638 27.636 73.4518 27.428C73.3398 27.22 73.1838 27.06 72.9838 26.948C72.7918 26.828 72.5638 26.768 72.2998 26.768C72.0438 26.768 71.8158 26.828 71.6158 26.948C71.4158 27.06 71.2598 27.22 71.1478 27.428C71.0358 27.636 70.9798 27.884 70.9798 28.172V32H69.4078ZM79.4971 32.072C78.7611 32.072 78.1891 31.872 77.7811 31.472C77.3811 31.064 77.1811 30.492 77.1811 29.756V26.876H76.0531V25.472H76.1731C76.4931 25.472 76.7411 25.388 76.9171 25.22C77.0931 25.052 77.1811 24.808 77.1811 24.488V23.984H78.7531V25.472H80.2531V26.876H78.7531V29.672C78.7531 29.888 78.7891 30.072 78.8611 30.224C78.9411 30.376 79.0611 30.492 79.2211 30.572C79.3891 30.652 79.6011 30.692 79.8571 30.692C79.9131 30.692 79.9771 30.688 80.0491 30.68C80.1291 30.672 80.2051 30.664 80.2771 30.656V32C80.1651 32.016 80.0371 32.032 79.8931 32.048C79.7491 32.064 79.6171 32.072 79.4971 32.072ZM81.4781 32V25.472H83.0501V32H81.4781ZM81.4781 24.74V23.06H83.0501V24.74H81.4781ZM84.5015 32V25.472H85.9775V26.984L85.8095 26.732C85.9295 26.26 86.1695 25.908 86.5295 25.676C86.8895 25.444 87.3135 25.328 87.8015 25.328C88.3375 25.328 88.8095 25.468 89.2175 25.748C89.6255 26.028 89.8895 26.396 90.0095 26.852L89.5655 26.888C89.7655 26.368 90.0655 25.98 90.4655 25.724C90.8655 25.46 91.3255 25.328 91.8455 25.328C92.3095 25.328 92.7215 25.432 93.0815 25.64C93.4495 25.848 93.7375 26.14 93.9455 26.516C94.1535 26.884 94.2575 27.312 94.2575 27.8V32H92.6855V28.172C92.6855 27.884 92.6335 27.636 92.5295 27.428C92.4255 27.22 92.2815 27.06 92.0975 26.948C91.9135 26.828 91.6895 26.768 91.4255 26.768C91.1775 26.768 90.9575 26.828 90.7655 26.948C90.5735 27.06 90.4255 27.22 90.3215 27.428C90.2175 27.636 90.1655 27.884 90.1655 28.172V32H88.5935V28.172C88.5935 27.884 88.5415 27.636 88.4375 27.428C88.3335 27.22 88.1855 27.06 87.9935 26.948C87.8095 26.828 87.5895 26.768 87.3335 26.768C87.0855 26.768 86.8655 26.828 86.6735 26.948C86.4815 27.06 86.3335 27.22 86.2295 27.428C86.1255 27.636 86.0735 27.884 86.0735 28.172V32H84.5015ZM98.6835 32.144C98.0115 32.144 97.4235 31.992 96.9195 31.688C96.4155 31.384 96.0235 30.972 95.7435 30.452C95.4635 29.932 95.3235 29.356 95.3235 28.724C95.3235 28.068 95.4635 27.488 95.7435 26.984C96.0315 26.472 96.4195 26.068 96.9075 25.772C97.4035 25.476 97.9555 25.328 98.5635 25.328C99.0755 25.328 99.5235 25.412 99.9075 25.58C100.299 25.748 100.631 25.98 100.903 26.276C101.175 26.572 101.383 26.912 101.527 27.296C101.671 27.672 101.743 28.08 101.743 28.52C101.743 28.632 101.735 28.748 101.719 28.868C101.711 28.988 101.691 29.092 101.659 29.18H96.6195V27.98H100.771L100.027 28.544C100.099 28.176 100.079 27.848 99.9675 27.56C99.8635 27.272 99.6875 27.044 99.4395 26.876C99.1995 26.708 98.9075 26.624 98.5635 26.624C98.2355 26.624 97.9435 26.708 97.6875 26.876C97.4315 27.036 97.2355 27.276 97.0995 27.596C96.9715 27.908 96.9235 28.288 96.9555 28.736C96.9235 29.136 96.9755 29.492 97.1115 29.804C97.2555 30.108 97.4635 30.344 97.7355 30.512C98.0155 30.68 98.3355 30.764 98.6955 30.764C99.0555 30.764 99.3595 30.688 99.6075 30.536C99.8635 30.384 100.063 30.18 100.207 29.924L101.479 30.548C101.351 30.86 101.151 31.136 100.879 31.376C100.607 31.616 100.283 31.804 99.9075 31.94C99.5395 32.076 99.1315 32.144 98.6835 32.144ZM102.935 32V25.472H104.411V26.756L104.291 26.528C104.443 26.136 104.691 25.84 105.035 25.64C105.387 25.432 105.795 25.328 106.259 25.328C106.739 25.328 107.163 25.432 107.531 25.64C107.907 25.848 108.199 26.14 108.407 26.516C108.615 26.884 108.719 27.312 108.719 27.8V32H107.147V28.172C107.147 27.884 107.091 27.636 106.979 27.428C106.867 27.22 106.711 27.06 106.511 26.948C106.319 26.828 106.091 26.768 105.827 26.768C105.571 26.768 105.343 26.828 105.143 26.948C104.943 27.06 104.787 27.22 104.675 27.428C104.563 27.636 104.507 27.884 104.507 28.172V32H102.935ZM113.024 32.072C112.288 32.072 111.716 31.872 111.308 31.472C110.908 31.064 110.708 30.492 110.708 29.756V26.876H109.58V25.472H109.7C110.02 25.472 110.268 25.388 110.444 25.22C110.62 25.052 110.708 24.808 110.708 24.488V23.984H112.28V25.472H113.78V26.876H112.28V29.672C112.28 29.888 112.316 30.072 112.388 30.224C112.468 30.376 112.588 30.492 112.748 30.572C112.916 30.652 113.128 30.692 113.384 30.692C113.44 30.692 113.504 30.688 113.576 30.68C113.656 30.672 113.732 30.664 113.804 30.656V32C113.692 32.016 113.564 32.032 113.42 32.048C113.276 32.064 113.144 32.072 113.024 32.072Z" fill="white"/>
<path d="M52 90.0078C57.5228 90.0078 62 85.5307 62 80.0078C62 74.485 57.5228 70.0078 52 70.0078C46.4772 70.0078 42 74.485 42 80.0078C42 85.5307 46.4772 90.0078 52 90.0078Z" fill="white" stroke="white" stroke-width="2" stroke-linecap="round" stroke-linejoin="round"/>
<path d="M48 82.0078C48 82.0078 49.5 84.0078 52 84.0078C54.5 84.0078 56 82.0078 56 82.0078" stroke="#262E40" stroke-width="2" stroke-linecap="round" stroke-linejoin="round"/>
<path d="M49 77.0078H49.01" stroke="#262E40" stroke-width="2" stroke-linecap="round" stroke-linejoin="round"/>
<path d="M55 77.0078H55.01" stroke="#262E40" stroke-width="2" stroke-linecap="round" stroke-linejoin="round"/>
<circle cx="52.0001" cy="80.0409" r="17.5" transform="rotate(-179.893 52.0001 80.0409)" stroke="#444C5C" stroke-width="5"/>
<path d="M52 62.5C61.944 62.5 69.5 70.5 69.5 80C69.5 89.8986 61 97.5 53 97.5" stroke="#61FF8D" stroke-width="5" stroke-linecap="round"/>
<path d="M25.789 122.078V113.138H28.945C29.537 113.138 30.057 113.25 30.505 113.474C30.953 113.698 31.301 114.018 31.549 114.434C31.805 114.85 31.933 115.338 31.933 115.898C31.933 116.458 31.805 116.946 31.549 117.362C31.301 117.77 30.953 118.09 30.505 118.322C30.065 118.546 29.545 118.658 28.945 118.658H26.965V122.078H25.789ZM26.965 117.578H28.981C29.341 117.578 29.653 117.51 29.917 117.374C30.181 117.238 30.385 117.042 30.529 116.786C30.673 116.53 30.745 116.234 30.745 115.898C30.745 115.554 30.673 115.258 30.529 115.01C30.385 114.754 30.181 114.558 29.917 114.422C29.653 114.286 29.341 114.218 28.981 114.218H26.965V117.578ZM36.229 122.222C35.605 122.222 35.041 122.078 34.537 121.79C34.033 121.494 33.633 121.09 33.337 120.578C33.041 120.066 32.893 119.486 32.893 118.838C32.893 118.19 33.037 117.614 33.325 117.11C33.621 116.606 34.021 116.206 34.525 115.91C35.029 115.614 35.597 115.466 36.229 115.466C36.853 115.466 37.417 115.614 37.921 115.91C38.425 116.198 38.821 116.594 39.109 117.098C39.405 117.602 39.553 118.182 39.553 118.838C39.553 119.494 39.401 120.078 39.097 120.59C38.793 121.094 38.389 121.494 37.885 121.79C37.389 122.078 36.837 122.222 36.229 122.222ZM36.229 121.142C36.629 121.142 36.989 121.042 37.309 120.842C37.637 120.642 37.893 120.366 38.077 120.014C38.269 119.662 38.365 119.27 38.365 118.838C38.365 118.398 38.269 118.01 38.077 117.674C37.893 117.33 37.637 117.058 37.309 116.858C36.989 116.65 36.629 116.546 36.229 116.546C35.821 116.546 35.453 116.65 35.125 116.858C34.805 117.058 34.549 117.33 34.357 117.674C34.165 118.01 34.069 118.398 34.069 118.838C34.069 119.27 34.165 119.662 34.357 120.014C34.549 120.366 34.805 120.642 35.125 120.842C35.453 121.042 35.821 121.142 36.229 121.142ZM43.3245 122.222C42.6765 122.222 42.1125 122.062 41.6325 121.742C41.1525 121.422 40.8125 120.99 40.6125 120.446L41.5005 120.014C41.6845 120.398 41.9365 120.702 42.2565 120.926C42.5765 121.15 42.9325 121.262 43.3245 121.262C43.6765 121.262 43.9685 121.178 44.2005 121.01C44.4325 120.842 44.5485 120.622 44.5485 120.35C44.5485 120.158 44.4925 120.006 44.3805 119.894C44.2765 119.774 44.1485 119.682 43.9965 119.618C43.8445 119.546 43.7045 119.494 43.5765 119.462L42.6045 119.186C42.0205 119.018 41.5925 118.778 41.3205 118.466C41.0565 118.154 40.9245 117.79 40.9245 117.374C40.9245 116.99 41.0205 116.658 41.2125 116.378C41.4125 116.09 41.6805 115.866 42.0165 115.706C42.3605 115.546 42.7445 115.466 43.1685 115.466C43.7365 115.466 44.2445 115.61 44.6925 115.898C45.1485 116.186 45.4725 116.59 45.6645 117.11L44.7525 117.53C44.6085 117.194 44.3925 116.93 44.1045 116.738C43.8165 116.538 43.4925 116.438 43.1325 116.438C42.8045 116.438 42.5445 116.522 42.3525 116.69C42.1605 116.85 42.0645 117.054 42.0645 117.302C42.0645 117.486 42.1125 117.638 42.2085 117.758C42.3045 117.87 42.4205 117.958 42.5565 118.022C42.6925 118.078 42.8245 118.126 42.9525 118.166L44.0085 118.478C44.5365 118.63 44.9445 118.866 45.2325 119.186C45.5285 119.506 45.6765 119.89 45.6765 120.338C45.6765 120.698 45.5765 121.022 45.3765 121.31C45.1765 121.598 44.9005 121.822 44.5485 121.982C44.1965 122.142 43.7885 122.222 43.3245 122.222ZM47.1374 122.078V115.61H48.2534V122.078H47.1374ZM47.1374 114.578V113.138H48.2534V114.578H47.1374ZM52.6131 122.15C51.9811 122.15 51.4931 121.97 51.1491 121.61C50.8131 121.25 50.6451 120.742 50.6451 120.086V116.678H49.4691V115.61H49.7091C49.9971 115.61 50.2251 115.522 50.3931 115.346C50.5611 115.17 50.6451 114.938 50.6451 114.65V114.122H51.7611V115.61H53.2131V116.678H51.7611V120.05C51.7611 120.266 51.7931 120.454 51.8571 120.614C51.9291 120.774 52.0451 120.902 52.2051 120.998C52.3651 121.086 52.5771 121.13 52.8411 121.13C52.8971 121.13 52.9651 121.126 53.0451 121.118C53.1331 121.11 53.2131 121.102 53.2851 121.094V122.078C53.1811 122.102 53.0651 122.118 52.9371 122.126C52.8091 122.142 52.7011 122.15 52.6131 122.15ZM54.7429 122.078V115.61H55.8589V122.078H54.7429ZM54.7429 114.578V113.138H55.8589V114.578H54.7429ZM59.3906 122.078L56.8586 115.61H58.1066L60.1346 121.082H59.7026L61.7426 115.61H62.9906L60.4466 122.078H59.3906ZM66.8478 122.222C66.2238 122.222 65.6678 122.074 65.1798 121.778C64.6918 121.482 64.3078 121.078 64.0278 120.566C63.7478 120.046 63.6078 119.466 63.6078 118.826C63.6078 118.178 63.7438 117.602 64.0158 117.098C64.2958 116.594 64.6718 116.198 65.1438 115.91C65.6238 115.614 66.1598 115.466 66.7518 115.466C67.2318 115.466 67.6558 115.554 68.0238 115.73C68.3998 115.898 68.7158 116.13 68.9718 116.426C69.2358 116.714 69.4358 117.046 69.5718 117.422C69.7158 117.79 69.7878 118.174 69.7878 118.574C69.7878 118.662 69.7798 118.762 69.7638 118.874C69.7558 118.978 69.7438 119.078 69.7278 119.174H64.4238V118.214H69.0798L68.5518 118.646C68.6238 118.23 68.5838 117.858 68.4318 117.53C68.2798 117.202 68.0558 116.942 67.7598 116.75C67.4638 116.558 67.1278 116.462 66.7518 116.462C66.3758 116.462 66.0318 116.558 65.7198 116.75C65.4078 116.942 65.1638 117.218 64.9878 117.578C64.8198 117.93 64.7518 118.35 64.7838 118.838C64.7518 119.31 64.8238 119.726 64.9998 120.086C65.1838 120.438 65.4398 120.714 65.7678 120.914C66.1038 121.106 66.4678 121.202 66.8598 121.202C67.2918 121.202 67.6558 121.102 67.9518 120.902C68.2478 120.702 68.4878 120.446 68.6718 120.134L69.6078 120.614C69.4798 120.91 69.2798 121.182 69.0078 121.43C68.7438 121.67 68.4278 121.862 68.0598 122.006C67.6998 122.15 67.2958 122.222 66.8478 122.222ZM74.2171 116.402H78.4291L78.7891 116.762V120.962L77.8891 121.862V116.882L78.2971 117.302H73.3171L74.2171 116.402ZM77.6851 116.81L78.3211 117.446L73.6891 122.078L73.0531 121.442L77.6851 116.81Z" fill="white"/>
<path d="M138.992 90.0547C144.515 90.0547 148.992 85.5775 148.992 80.0547C148.992 74.5318 144.515 70.0547 138.992 70.0547C133.469 70.0547 128.992 74.5318 128.992 80.0547C128.992 85.5775 133.469 90.0547 138.992 90.0547Z" fill="white" stroke="white" stroke-width="2" stroke-linecap="round" stroke-linejoin="round"/>
<path d="M134.992 83.0547H142.992" stroke="#262E40" stroke-width="2" stroke-linecap="round" stroke-linejoin="round"/>
<path d="M135.992 77.0547H136.002" stroke="#262E40" stroke-width="2" stroke-linecap="round" stroke-linejoin="round"/>
<path d="M141.992 77.0547H142.002" stroke="#262E40" stroke-width="2" stroke-linecap="round" stroke-linejoin="round"/>
<circle cx="139" cy="80.0409" r="17.5" transform="rotate(-179.893 139 80.0409)" stroke="#444C5C" stroke-width="5"/>
<path d="M138 62.5078C148.5 62.0078 156.5 70.1071 156.5 80.0078" stroke="#A4A7AF" stroke-width="5" stroke-linecap="round"/>
<path d="M113.406 122.078V113.138H114.39L119.526 120.362L119.082 120.41V113.138H120.27V122.078H119.286L114.174 114.806L114.582 114.758V122.078H113.406ZM125.11 122.222C124.486 122.222 123.93 122.074 123.442 121.778C122.954 121.482 122.57 121.078 122.29 120.566C122.01 120.046 121.87 119.466 121.87 118.826C121.87 118.178 122.006 117.602 122.278 117.098C122.558 116.594 122.934 116.198 123.406 115.91C123.886 115.614 124.422 115.466 125.014 115.466C125.494 115.466 125.918 115.554 126.286 115.73C126.662 115.898 126.978 116.13 127.234 116.426C127.498 116.714 127.698 117.046 127.834 117.422C127.978 117.79 128.05 118.174 128.05 118.574C128.05 118.662 128.042 118.762 128.026 118.874C128.018 118.978 128.006 119.078 127.99 119.174H122.686V118.214H127.342L126.814 118.646C126.886 118.23 126.846 117.858 126.694 117.53C126.542 117.202 126.318 116.942 126.022 116.75C125.726 116.558 125.39 116.462 125.014 116.462C124.638 116.462 124.294 116.558 123.982 116.75C123.67 116.942 123.426 117.218 123.25 117.578C123.082 117.93 123.014 118.35 123.046 118.838C123.014 119.31 123.086 119.726 123.262 120.086C123.446 120.438 123.702 120.714 124.03 120.914C124.366 121.106 124.73 121.202 125.122 121.202C125.554 121.202 125.918 121.102 126.214 120.902C126.51 120.702 126.75 120.446 126.934 120.134L127.87 120.614C127.742 120.91 127.542 121.182 127.27 121.43C127.006 121.67 126.69 121.862 126.322 122.006C125.962 122.15 125.558 122.222 125.11 122.222ZM131.797 122.222C131.333 122.222 130.913 122.114 130.537 121.898C130.169 121.682 129.881 121.382 129.673 120.998C129.473 120.606 129.373 120.158 129.373 119.654V115.61H130.489V119.534C130.489 119.854 130.553 120.134 130.681 120.374C130.817 120.614 131.001 120.802 131.233 120.938C131.473 121.074 131.745 121.142 132.049 121.142C132.353 121.142 132.621 121.074 132.853 120.938C133.093 120.802 133.277 120.606 133.405 120.35C133.541 120.094 133.609 119.79 133.609 119.438V115.61H134.737V122.078H133.645V120.818L133.825 120.926C133.673 121.334 133.413 121.654 133.045 121.886C132.685 122.11 132.269 122.222 131.797 122.222ZM139.094 122.15C138.462 122.15 137.974 121.97 137.63 121.61C137.294 121.25 137.126 120.742 137.126 120.086V116.678H135.95V115.61H136.19C136.478 115.61 136.706 115.522 136.874 115.346C137.042 115.17 137.126 114.938 137.126 114.65V114.122H138.242V115.61H139.694V116.678H138.242V120.05C138.242 120.266 138.274 120.454 138.338 120.614C138.41 120.774 138.526 120.902 138.686 120.998C138.846 121.086 139.058 121.13 139.322 121.13C139.378 121.13 139.446 121.126 139.526 121.118C139.614 121.11 139.694 121.102 139.766 121.094V122.078C139.662 122.102 139.546 122.118 139.418 122.126C139.29 122.142 139.182 122.15 139.094 122.15ZM141.223 122.078V115.61H142.315V116.798L142.195 116.63C142.347 116.262 142.579 115.99 142.891 115.814C143.203 115.63 143.583 115.538 144.031 115.538H144.427V116.594H143.863C143.407 116.594 143.039 116.738 142.759 117.026C142.479 117.306 142.339 117.706 142.339 118.226V122.078H141.223ZM147.315 122.222C146.891 122.222 146.515 122.146 146.187 121.994C145.867 121.834 145.615 121.618 145.431 121.346C145.247 121.066 145.155 120.746 145.155 120.386C145.155 120.042 145.227 119.734 145.371 119.462C145.523 119.182 145.755 118.946 146.067 118.754C146.387 118.562 146.787 118.426 147.267 118.346L149.667 117.95V118.886L147.519 119.246C147.103 119.318 146.799 119.45 146.607 119.642C146.423 119.834 146.331 120.07 146.331 120.35C146.331 120.614 146.435 120.834 146.643 121.01C146.859 121.186 147.127 121.274 147.447 121.274C147.855 121.274 148.207 121.19 148.503 121.022C148.807 120.846 149.043 120.61 149.211 120.314C149.387 120.018 149.475 119.69 149.475 119.33V117.686C149.475 117.334 149.343 117.05 149.079 116.834C148.823 116.61 148.483 116.498 148.059 116.498C147.691 116.498 147.363 116.594 147.075 116.786C146.795 116.97 146.587 117.218 146.451 117.53L145.479 117.026C145.599 116.73 145.791 116.466 146.055 116.234C146.319 115.994 146.627 115.806 146.979 115.67C147.331 115.534 147.699 115.466 148.083 115.466C148.579 115.466 149.015 115.562 149.391 115.754C149.767 115.938 150.059 116.198 150.267 116.534C150.483 116.862 150.591 117.246 150.591 117.686V122.078H149.499V120.854L149.703 120.926C149.567 121.182 149.383 121.406 149.151 121.598C148.919 121.79 148.647 121.942 148.335 122.054C148.023 122.166 147.683 122.222 147.315 122.222ZM152.321 122.078V112.994H153.437V122.078H152.321ZM160.217 116.402H164.429L164.789 116.762V120.962L163.889 121.862V116.882L164.297 117.302H159.317L160.217 116.402ZM163.685 116.81L164.321 117.446L159.689 122.078L159.053 121.442L163.685 116.81Z" fill="white"/>
<path d="M229.467 90.0078C234.99 90.0078 239.467 85.5307 239.467 80.0078C239.467 74.485 234.99 70.0078 229.467 70.0078C223.944 70.0078 219.467 74.485 219.467 80.0078C219.467 85.5307 223.944 90.0078 229.467 90.0078Z" fill="white" stroke="white" stroke-width="2" stroke-linecap="round" stroke-linejoin="round"/>
<path d="M233.467 84.0078C233.467 84.0078 231.967 82.0078 229.467 82.0078C226.967 82.0078 225.467 84.0078 225.467 84.0078" stroke="#262E40" stroke-width="2" stroke-linecap="round" stroke-linejoin="round"/>
<path d="M226.467 77.0078H226.477" stroke="#262E40" stroke-width="2" stroke-linecap="round" stroke-linejoin="round"/>
<path d="M232.467 77.0078H232.477" stroke="#262E40" stroke-width="2" stroke-linecap="round" stroke-linejoin="round"/>
<circle cx="229.5" cy="80.0409" r="17.5" transform="rotate(-179.893 229.5 80.0409)" stroke="#444C5C" stroke-width="5"/>
<path d="M229.537 62.5781C234.531 62.5781 239.537 64.5781 242.537 68.5781" stroke="#FD6F65" stroke-width="5" stroke-linecap="round"/>
<path d="M199.91 122.078V113.138H200.894L206.03 120.362L205.586 120.41V113.138H206.774V122.078H205.79L200.678 114.806L201.086 114.758V122.078H199.91ZM211.613 122.222C210.989 122.222 210.433 122.074 209.945 121.778C209.457 121.482 209.073 121.078 208.793 120.566C208.513 120.046 208.373 119.466 208.373 118.826C208.373 118.178 208.509 117.602 208.781 117.098C209.061 116.594 209.437 116.198 209.909 115.91C210.389 115.614 210.925 115.466 211.517 115.466C211.997 115.466 212.421 115.554 212.789 115.73C213.165 115.898 213.481 116.13 213.737 116.426C214.001 116.714 214.201 117.046 214.337 117.422C214.481 117.79 214.553 118.174 214.553 118.574C214.553 118.662 214.545 118.762 214.529 118.874C214.521 118.978 214.509 119.078 214.493 119.174H209.189V118.214H213.845L213.317 118.646C213.389 118.23 213.349 117.858 213.197 117.53C213.045 117.202 212.821 116.942 212.525 116.75C212.229 116.558 211.893 116.462 211.517 116.462C211.141 116.462 210.797 116.558 210.485 116.75C210.173 116.942 209.929 117.218 209.753 117.578C209.585 117.93 209.517 118.35 209.549 118.838C209.517 119.31 209.589 119.726 209.765 120.086C209.949 120.438 210.205 120.714 210.533 120.914C210.869 121.106 211.233 121.202 211.625 121.202C212.057 121.202 212.421 121.102 212.717 120.902C213.013 120.702 213.253 120.446 213.437 120.134L214.373 120.614C214.245 120.91 214.045 121.182 213.773 121.43C213.509 121.67 213.193 121.862 212.825 122.006C212.465 122.15 212.061 122.222 211.613 122.222ZM219.093 124.718C218.637 124.718 218.213 124.646 217.821 124.502C217.437 124.358 217.105 124.158 216.825 123.902C216.553 123.654 216.345 123.362 216.201 123.026L217.245 122.546C217.357 122.85 217.569 123.106 217.881 123.314C218.201 123.53 218.601 123.638 219.081 123.638C219.449 123.638 219.781 123.566 220.077 123.422C220.381 123.286 220.621 123.078 220.797 122.798C220.973 122.526 221.061 122.194 221.061 121.802V120.35L221.265 120.566C221.041 121.006 220.717 121.342 220.293 121.574C219.877 121.806 219.417 121.922 218.913 121.922C218.305 121.922 217.761 121.782 217.281 121.502C216.801 121.214 216.425 120.826 216.153 120.338C215.881 119.842 215.745 119.294 215.745 118.694C215.745 118.086 215.881 117.538 216.153 117.05C216.425 116.562 216.797 116.178 217.269 115.898C217.749 115.61 218.293 115.466 218.901 115.466C219.405 115.466 219.861 115.582 220.269 115.814C220.685 116.038 221.017 116.35 221.265 116.75L221.097 117.05V115.61H222.189V121.802C222.189 122.362 222.057 122.862 221.793 123.302C221.529 123.742 221.161 124.086 220.689 124.334C220.225 124.59 219.693 124.718 219.093 124.718ZM219.009 120.842C219.393 120.842 219.737 120.746 220.041 120.554C220.353 120.362 220.601 120.106 220.785 119.786C220.969 119.458 221.061 119.094 221.061 118.694C221.061 118.302 220.969 117.942 220.785 117.614C220.601 117.286 220.353 117.026 220.041 116.834C219.737 116.642 219.393 116.546 219.009 116.546C218.617 116.546 218.261 116.642 217.941 116.834C217.621 117.026 217.369 117.286 217.185 117.614C217.009 117.934 216.921 118.294 216.921 118.694C216.921 119.094 217.009 119.458 217.185 119.786C217.369 120.106 217.617 120.362 217.929 120.554C218.249 120.746 218.609 120.842 219.009 120.842ZM225.815 122.222C225.391 122.222 225.015 122.146 224.687 121.994C224.367 121.834 224.115 121.618 223.931 121.346C223.747 121.066 223.655 120.746 223.655 120.386C223.655 120.042 223.727 119.734 223.871 119.462C224.023 119.182 224.255 118.946 224.567 118.754C224.887 118.562 225.287 118.426 225.767 118.346L228.167 117.95V118.886L226.019 119.246C225.603 119.318 225.299 119.45 225.107 119.642C224.923 119.834 224.831 120.07 224.831 120.35C224.831 120.614 224.935 120.834 225.143 121.01C225.359 121.186 225.627 121.274 225.947 121.274C226.355 121.274 226.707 121.19 227.003 121.022C227.307 120.846 227.543 120.61 227.711 120.314C227.887 120.018 227.975 119.69 227.975 119.33V117.686C227.975 117.334 227.843 117.05 227.579 116.834C227.323 116.61 226.983 116.498 226.559 116.498C226.191 116.498 225.863 116.594 225.575 116.786C225.295 116.97 225.087 117.218 224.951 117.53L223.979 117.026C224.099 116.73 224.291 116.466 224.555 116.234C224.819 115.994 225.127 115.806 225.479 115.67C225.831 115.534 226.199 115.466 226.583 115.466C227.079 115.466 227.515 115.562 227.891 115.754C228.267 115.938 228.559 116.198 228.767 116.534C228.983 116.862 229.091 117.246 229.091 117.686V122.078H227.999V120.854L228.203 120.926C228.067 121.182 227.883 121.406 227.651 121.598C227.419 121.79 227.147 121.942 226.835 122.054C226.523 122.166 226.183 122.222 225.815 122.222ZM233.332 122.15C232.7 122.15 232.212 121.97 231.868 121.61C231.532 121.25 231.364 120.742 231.364 120.086V116.678H230.188V115.61H230.428C230.716 115.61 230.944 115.522 231.112 115.346C231.28 115.17 231.364 114.938 231.364 114.65V114.122H232.48V115.61H233.932V116.678H232.48V120.05C232.48 120.266 232.512 120.454 232.576 120.614C232.648 120.774 232.764 120.902 232.924 120.998C233.084 121.086 233.296 121.13 233.56 121.13C233.616 121.13 233.684 121.126 233.764 121.118C233.852 121.11 233.932 121.102 234.004 121.094V122.078C233.9 122.102 233.784 122.118 233.656 122.126C233.528 122.142 233.42 122.15 233.332 122.15ZM235.462 122.078V115.61H236.578V122.078H235.462ZM235.462 114.578V113.138H236.578V114.578H235.462ZM240.109 122.078L237.577 115.61H238.825L240.853 121.082H240.421L242.461 115.61H243.709L241.165 122.078H240.109ZM247.567 122.222C246.943 122.222 246.387 122.074 245.899 121.778C245.411 121.482 245.027 121.078 244.747 120.566C244.467 120.046 244.327 119.466 244.327 118.826C244.327 118.178 244.463 117.602 244.735 117.098C245.015 116.594 245.391 116.198 245.863 115.91C246.343 115.614 246.879 115.466 247.471 115.466C247.951 115.466 248.375 115.554 248.743 115.73C249.119 115.898 249.435 116.13 249.691 116.426C249.955 116.714 250.155 117.046 250.291 117.422C250.435 117.79 250.507 118.174 250.507 118.574C250.507 118.662 250.499 118.762 250.483 118.874C250.475 118.978 250.463 119.078 250.447 119.174H245.143V118.214H249.799L249.271 118.646C249.343 118.23 249.303 117.858 249.151 117.53C248.999 117.202 248.775 116.942 248.479 116.75C248.183 116.558 247.847 116.462 247.471 116.462C247.095 116.462 246.751 116.558 246.439 116.75C246.127 116.942 245.883 117.218 245.707 117.578C245.539 117.93 245.471 118.35 245.503 118.838C245.471 119.31 245.543 119.726 245.719 120.086C245.903 120.438 246.159 120.714 246.487 120.914C246.823 121.106 247.187 121.202 247.579 121.202C248.011 121.202 248.375 121.102 248.671 120.902C248.967 120.702 249.207 120.446 249.391 120.134L250.327 120.614C250.199 120.91 249.999 121.182 249.727 121.43C249.463 121.67 249.147 121.862 248.779 122.006C248.419 122.15 248.015 122.222 247.567 122.222ZM255.116 122.078L254.084 121.01H259.16L258.656 121.526V116.45L259.724 117.482V121.682L259.328 122.078H255.116ZM258.44 121.598L253.868 117.026L254.624 116.27L259.196 120.842L258.44 121.598Z" fill="white"/>
</svg>
