<svg width="291" height="158" viewBox="0 0 291 158" fill="none" xmlns="http://www.w3.org/2000/svg">
<rect width="291" height="158" rx="8" fill="#262E40"/>
<path d="M24.448 32V24.5H22.132V23.06H28.372V24.5H26.092V32H24.448ZM31.4882 32.144C30.8162 32.144 30.2282 31.992 29.7242 31.688C29.2202 31.384 28.8282 30.972 28.5482 30.452C28.2682 29.932 28.1282 29.356 28.1282 28.724C28.1282 28.068 28.2682 27.488 28.5482 26.984C28.8362 26.472 29.2242 26.068 29.7122 25.772C30.2082 25.476 30.7602 25.328 31.3682 25.328C31.8802 25.328 32.3282 25.412 32.7122 25.58C33.1042 25.748 33.4362 25.98 33.7082 26.276C33.9802 26.572 34.1882 26.912 34.3322 27.296C34.4762 27.672 34.5482 28.08 34.5482 28.52C34.5482 28.632 34.5402 28.748 34.5242 28.868C34.5162 28.988 34.4962 29.092 34.4642 29.18H29.4242V27.98H33.5762L32.8322 28.544C32.9042 28.176 32.8842 27.848 32.7722 27.56C32.6682 27.272 32.4922 27.044 32.2442 26.876C32.0042 26.708 31.7122 26.624 31.3682 26.624C31.0402 26.624 30.7482 26.708 30.4922 26.876C30.2362 27.036 30.0402 27.276 29.9042 27.596C29.7762 27.908 29.7282 28.288 29.7602 28.736C29.7282 29.136 29.7802 29.492 29.9162 29.804C30.0602 30.108 30.2682 30.344 30.5402 30.512C30.8202 30.68 31.1402 30.764 31.5002 30.764C31.8602 30.764 32.1642 30.688 32.4122 30.536C32.6682 30.384 32.8682 30.18 33.0122 29.924L34.2842 30.548C34.1562 30.86 33.9562 31.136 33.6842 31.376C33.4122 31.616 33.0882 31.804 32.7122 31.94C32.3442 32.076 31.9362 32.144 31.4882 32.144ZM37.6964 32.144C37.2404 32.144 36.8444 32.068 36.5084 31.916C36.1724 31.764 35.9124 31.548 35.7284 31.268C35.5444 30.98 35.4524 30.648 35.4524 30.272C35.4524 29.912 35.5324 29.592 35.6924 29.312C35.8524 29.024 36.1004 28.784 36.4364 28.592C36.7724 28.4 37.1964 28.264 37.7084 28.184L39.8444 27.836V29.036L38.0084 29.348C37.6964 29.404 37.4644 29.504 37.3124 29.648C37.1604 29.792 37.0844 29.98 37.0844 30.212C37.0844 30.436 37.1684 30.616 37.3364 30.752C37.5124 30.88 37.7284 30.944 37.9844 30.944C38.3124 30.944 38.6004 30.876 38.8484 30.74C39.1044 30.596 39.3004 30.4 39.4364 30.152C39.5804 29.904 39.6524 29.632 39.6524 29.336V27.656C39.6524 27.376 39.5404 27.144 39.3164 26.96C39.1004 26.768 38.8124 26.672 38.4524 26.672C38.1164 26.672 37.8164 26.764 37.5524 26.948C37.2964 27.124 37.1084 27.36 36.9884 27.656L35.7044 27.032C35.8324 26.688 36.0324 26.392 36.3044 26.144C36.5844 25.888 36.9124 25.688 37.2884 25.544C37.6644 25.4 38.0724 25.328 38.5124 25.328C39.0484 25.328 39.5204 25.428 39.9284 25.628C40.3364 25.82 40.6524 26.092 40.8764 26.444C41.1084 26.788 41.2244 27.192 41.2244 27.656V32H39.7364V30.884L40.0724 30.86C39.9044 31.14 39.7044 31.376 39.4724 31.568C39.2404 31.752 38.9764 31.896 38.6804 32C38.3844 32.096 38.0564 32.144 37.6964 32.144ZM42.6773 32V25.472H44.1533V26.984L43.9853 26.732C44.1053 26.26 44.3453 25.908 44.7053 25.676C45.0653 25.444 45.4893 25.328 45.9773 25.328C46.5133 25.328 46.9853 25.468 47.3933 25.748C47.8013 26.028 48.0653 26.396 48.1853 26.852L47.7413 26.888C47.9413 26.368 48.2413 25.98 48.6413 25.724C49.0413 25.46 49.5013 25.328 50.0213 25.328C50.4853 25.328 50.8973 25.432 51.2573 25.64C51.6253 25.848 51.9133 26.14 52.1213 26.516C52.3293 26.884 52.4333 27.312 52.4333 27.8V32H50.8613V28.172C50.8613 27.884 50.8093 27.636 50.7053 27.428C50.6013 27.22 50.4573 27.06 50.2733 26.948C50.0893 26.828 49.8653 26.768 49.6013 26.768C49.3533 26.768 49.1333 26.828 48.9413 26.948C48.7493 27.06 48.6013 27.22 48.4973 27.428C48.3933 27.636 48.3413 27.884 48.3413 28.172V32H46.7693V28.172C46.7693 27.884 46.7173 27.636 46.6133 27.428C46.5093 27.22 46.3613 27.06 46.1693 26.948C45.9853 26.828 45.7653 26.768 45.5093 26.768C45.2613 26.768 45.0413 26.828 44.8493 26.948C44.6573 27.06 44.5093 27.22 44.4053 27.428C44.3013 27.636 44.2493 27.884 44.2493 28.172V32H42.6773ZM58.3801 32.144C57.6841 32.144 57.0761 31.98 56.5561 31.652C56.0441 31.316 55.6921 30.864 55.5001 30.296L56.6761 29.732C56.8441 30.1 57.0761 30.388 57.3721 30.596C57.6761 30.804 58.0121 30.908 58.3801 30.908C58.6681 30.908 58.8961 30.844 59.0641 30.716C59.2321 30.588 59.3161 30.42 59.3161 30.212C59.3161 30.084 59.2801 29.98 59.2081 29.9C59.1441 29.812 59.0521 29.74 58.9321 29.684C58.8201 29.62 58.6961 29.568 58.5601 29.528L57.4921 29.228C56.9401 29.068 56.5201 28.824 56.2321 28.496C55.9521 28.168 55.8121 27.78 55.8121 27.332C55.8121 26.932 55.9121 26.584 56.1121 26.288C56.3201 25.984 56.6041 25.748 56.9641 25.58C57.3321 25.412 57.7521 25.328 58.2241 25.328C58.8401 25.328 59.3841 25.476 59.8561 25.772C60.3281 26.068 60.6641 26.484 60.8641 27.02L59.6641 27.584C59.5521 27.288 59.3641 27.052 59.1001 26.876C58.8361 26.7 58.5401 26.612 58.2121 26.612C57.9481 26.612 57.7401 26.672 57.5881 26.792C57.4361 26.912 57.3601 27.068 57.3601 27.26C57.3601 27.38 57.3921 27.484 57.4561 27.572C57.5201 27.66 57.6081 27.732 57.7201 27.788C57.8401 27.844 57.9761 27.896 58.1281 27.944L59.1721 28.256C59.7081 28.416 60.1201 28.656 60.4081 28.976C60.7041 29.296 60.8521 29.688 60.8521 30.152C60.8521 30.544 60.7481 30.892 60.5401 31.196C60.3321 31.492 60.0441 31.724 59.6761 31.892C59.3081 32.06 58.8761 32.144 58.3801 32.144ZM65.1561 32.144C64.4841 32.144 63.8961 31.992 63.3921 31.688C62.8881 31.384 62.4961 30.972 62.2161 30.452C61.9361 29.932 61.7961 29.356 61.7961 28.724C61.7961 28.068 61.9361 27.488 62.2161 26.984C62.5041 26.472 62.8921 26.068 63.3801 25.772C63.8761 25.476 64.4281 25.328 65.0361 25.328C65.5481 25.328 65.9961 25.412 66.3801 25.58C66.7721 25.748 67.1041 25.98 67.3761 26.276C67.6481 26.572 67.8561 26.912 68.0001 27.296C68.1441 27.672 68.2161 28.08 68.2161 28.52C68.2161 28.632 68.2081 28.748 68.1921 28.868C68.1841 28.988 68.1641 29.092 68.1321 29.18H63.0921V27.98H67.2441L66.5001 28.544C66.5721 28.176 66.5521 27.848 66.4401 27.56C66.3361 27.272 66.1601 27.044 65.9121 26.876C65.6721 26.708 65.3801 26.624 65.0361 26.624C64.7081 26.624 64.4161 26.708 64.1601 26.876C63.9041 27.036 63.7081 27.276 63.5721 27.596C63.4441 27.908 63.3961 28.288 63.4281 28.736C63.3961 29.136 63.4481 29.492 63.5841 29.804C63.7281 30.108 63.9361 30.344 64.2081 30.512C64.4881 30.68 64.8081 30.764 65.1681 30.764C65.5281 30.764 65.8321 30.688 66.0801 30.536C66.3361 30.384 66.5361 30.18 66.6801 29.924L67.9521 30.548C67.8241 30.86 67.6241 31.136 67.3521 31.376C67.0801 31.616 66.7561 31.804 66.3801 31.94C66.0121 32.076 65.6041 32.144 65.1561 32.144ZM69.4078 32V25.472H70.8838V26.756L70.7638 26.528C70.9158 26.136 71.1638 25.84 71.5078 25.64C71.8598 25.432 72.2678 25.328 72.7318 25.328C73.2118 25.328 73.6358 25.432 74.0038 25.64C74.3798 25.848 74.6718 26.14 74.8798 26.516C75.0878 26.884 75.1918 27.312 75.1918 27.8V32H73.6198V28.172C73.6198 27.884 73.5638 27.636 73.4518 27.428C73.3398 27.22 73.1838 27.06 72.9838 26.948C72.7918 26.828 72.5638 26.768 72.2998 26.768C72.0438 26.768 71.8158 26.828 71.6158 26.948C71.4158 27.06 71.2598 27.22 71.1478 27.428C71.0358 27.636 70.9798 27.884 70.9798 28.172V32H69.4078ZM79.4971 32.072C78.7611 32.072 78.1891 31.872 77.7811 31.472C77.3811 31.064 77.1811 30.492 77.1811 29.756V26.876H76.0531V25.472H76.1731C76.4931 25.472 76.7411 25.388 76.9171 25.22C77.0931 25.052 77.1811 24.808 77.1811 24.488V23.984H78.7531V25.472H80.2531V26.876H78.7531V29.672C78.7531 29.888 78.7891 30.072 78.8611 30.224C78.9411 30.376 79.0611 30.492 79.2211 30.572C79.3891 30.652 79.6011 30.692 79.8571 30.692C79.9131 30.692 79.9771 30.688 80.0491 30.68C80.1291 30.672 80.2051 30.664 80.2771 30.656V32C80.1651 32.016 80.0371 32.032 79.8931 32.048C79.7491 32.064 79.6171 32.072 79.4971 32.072ZM81.4781 32V25.472H83.0501V32H81.4781ZM81.4781 24.74V23.06H83.0501V24.74H81.4781ZM84.5015 32V25.472H85.9775V26.984L85.8095 26.732C85.9295 26.26 86.1695 25.908 86.5295 25.676C86.8895 25.444 87.3135 25.328 87.8015 25.328C88.3375 25.328 88.8095 25.468 89.2175 25.748C89.6255 26.028 89.8895 26.396 90.0095 26.852L89.5655 26.888C89.7655 26.368 90.0655 25.98 90.4655 25.724C90.8655 25.46 91.3255 25.328 91.8455 25.328C92.3095 25.328 92.7215 25.432 93.0815 25.64C93.4495 25.848 93.7375 26.14 93.9455 26.516C94.1535 26.884 94.2575 27.312 94.2575 27.8V32H92.6855V28.172C92.6855 27.884 92.6335 27.636 92.5295 27.428C92.4255 27.22 92.2815 27.06 92.0975 26.948C91.9135 26.828 91.6895 26.768 91.4255 26.768C91.1775 26.768 90.9575 26.828 90.7655 26.948C90.5735 27.06 90.4255 27.22 90.3215 27.428C90.2175 27.636 90.1655 27.884 90.1655 28.172V32H88.5935V28.172C88.5935 27.884 88.5415 27.636 88.4375 27.428C88.3335 27.22 88.1855 27.06 87.9935 26.948C87.8095 26.828 87.5895 26.768 87.3335 26.768C87.0855 26.768 86.8655 26.828 86.6735 26.948C86.4815 27.06 86.3335 27.22 86.2295 27.428C86.1255 27.636 86.0735 27.884 86.0735 28.172V32H84.5015ZM98.6835 32.144C98.0115 32.144 97.4235 31.992 96.9195 31.688C96.4155 31.384 96.0235 30.972 95.7435 30.452C95.4635 29.932 95.3235 29.356 95.3235 28.724C95.3235 28.068 95.4635 27.488 95.7435 26.984C96.0315 26.472 96.4195 26.068 96.9075 25.772C97.4035 25.476 97.9555 25.328 98.5635 25.328C99.0755 25.328 99.5235 25.412 99.9075 25.58C100.299 25.748 100.631 25.98 100.903 26.276C101.175 26.572 101.383 26.912 101.527 27.296C101.671 27.672 101.743 28.08 101.743 28.52C101.743 28.632 101.735 28.748 101.719 28.868C101.711 28.988 101.691 29.092 101.659 29.18H96.6195V27.98H100.771L100.027 28.544C100.099 28.176 100.079 27.848 99.9675 27.56C99.8635 27.272 99.6875 27.044 99.4395 26.876C99.1995 26.708 98.9075 26.624 98.5635 26.624C98.2355 26.624 97.9435 26.708 97.6875 26.876C97.4315 27.036 97.2355 27.276 97.0995 27.596C96.9715 27.908 96.9235 28.288 96.9555 28.736C96.9235 29.136 96.9755 29.492 97.1115 29.804C97.2555 30.108 97.4635 30.344 97.7355 30.512C98.0155 30.68 98.3355 30.764 98.6955 30.764C99.0555 30.764 99.3595 30.688 99.6075 30.536C99.8635 30.384 100.063 30.18 100.207 29.924L101.479 30.548C101.351 30.86 101.151 31.136 100.879 31.376C100.607 31.616 100.283 31.804 99.9075 31.94C99.5395 32.076 99.1315 32.144 98.6835 32.144ZM102.935 32V25.472H104.411V26.756L104.291 26.528C104.443 26.136 104.691 25.84 105.035 25.64C105.387 25.432 105.795 25.328 106.259 25.328C106.739 25.328 107.163 25.432 107.531 25.64C107.907 25.848 108.199 26.14 108.407 26.516C108.615 26.884 108.719 27.312 108.719 27.8V32H107.147V28.172C107.147 27.884 107.091 27.636 106.979 27.428C106.867 27.22 106.711 27.06 106.511 26.948C106.319 26.828 106.091 26.768 105.827 26.768C105.571 26.768 105.343 26.828 105.143 26.948C104.943 27.06 104.787 27.22 104.675 27.428C104.563 27.636 104.507 27.884 104.507 28.172V32H102.935ZM113.024 32.072C112.288 32.072 111.716 31.872 111.308 31.472C110.908 31.064 110.708 30.492 110.708 29.756V26.876H109.58V25.472H109.7C110.02 25.472 110.268 25.388 110.444 25.22C110.62 25.052 110.708 24.808 110.708 24.488V23.984H112.28V25.472H113.78V26.876H112.28V29.672C112.28 29.888 112.316 30.072 112.388 30.224C112.468 30.376 112.588 30.492 112.748 30.572C112.916 30.652 113.128 30.692 113.384 30.692C113.44 30.692 113.504 30.688 113.576 30.68C113.656 30.672 113.732 30.664 113.804 30.656V32C113.692 32.016 113.564 32.032 113.42 32.048C113.276 32.064 113.144 32.072 113.024 32.072Z" fill="white"/>
<path d="M55.4666 90.0049C60.9894 90.0049 65.4666 85.5277 65.4666 80.0049C65.4666 74.482 60.9894 70.0049 55.4666 70.0049C49.9437 70.0049 45.4666 74.482 45.4666 80.0049C45.4666 85.5277 49.9437 90.0049 55.4666 90.0049Z" fill="white" stroke="white" stroke-width="2" stroke-linecap="round" stroke-linejoin="round"/>
<path d="M59.4666 84.0049C59.4666 84.0049 57.9666 82.0049 55.4666 82.0049C52.9666 82.0049 51.4666 84.0049 51.4666 84.0049" stroke="#262E40" stroke-width="2" stroke-linecap="round" stroke-linejoin="round"/>
<path d="M52.4666 77.0049H52.4766" stroke="#262E40" stroke-width="2" stroke-linecap="round" stroke-linejoin="round"/>
<path d="M58.4666 77.0049H58.4766" stroke="#262E40" stroke-width="2" stroke-linecap="round" stroke-linejoin="round"/>
<circle cx="55.5004" cy="80.037" r="17.5" transform="rotate(-179.893 55.5004 80.037)" stroke="#444C5C" stroke-width="5"/>
<path d="M55.5374 62.5742C60.5313 62.5742 65.5374 64.5742 68.5374 68.5742" stroke="#FD6F65" stroke-width="5" stroke-linecap="round"/>
<path d="M25.9101 122.074V113.134H26.8941L32.0301 120.358L31.5861 120.406V113.134H32.7741V122.074H31.7901L26.6781 114.802L27.0861 114.754V122.074H25.9101ZM37.6134 122.218C36.9894 122.218 36.4334 122.07 35.9454 121.774C35.4574 121.478 35.0734 121.074 34.7934 120.562C34.5134 120.042 34.3734 119.462 34.3734 118.822C34.3734 118.174 34.5094 117.598 34.7814 117.094C35.0614 116.59 35.4374 116.194 35.9094 115.906C36.3894 115.61 36.9254 115.462 37.5174 115.462C37.9974 115.462 38.4214 115.55 38.7894 115.726C39.1654 115.894 39.4814 116.126 39.7374 116.422C40.0014 116.71 40.2014 117.042 40.3374 117.418C40.4814 117.786 40.5534 118.17 40.5534 118.57C40.5534 118.658 40.5454 118.758 40.5294 118.87C40.5214 118.974 40.5094 119.074 40.4934 119.17H35.1894V118.21H39.8454L39.3174 118.642C39.3894 118.226 39.3494 117.854 39.1974 117.526C39.0454 117.198 38.8214 116.938 38.5254 116.746C38.2294 116.554 37.8934 116.458 37.5174 116.458C37.1414 116.458 36.7974 116.554 36.4854 116.746C36.1734 116.938 35.9294 117.214 35.7534 117.574C35.5854 117.926 35.5174 118.346 35.5494 118.834C35.5174 119.306 35.5894 119.722 35.7654 120.082C35.9494 120.434 36.2054 120.71 36.5334 120.91C36.8694 121.102 37.2334 121.198 37.6254 121.198C38.0574 121.198 38.4214 121.098 38.7174 120.898C39.0134 120.698 39.2534 120.442 39.4374 120.13L40.3734 120.61C40.2454 120.906 40.0454 121.178 39.7734 121.426C39.5094 121.666 39.1934 121.858 38.8254 122.002C38.4654 122.146 38.0614 122.218 37.6134 122.218ZM45.0925 124.714C44.6365 124.714 44.2125 124.642 43.8205 124.498C43.4365 124.354 43.1045 124.154 42.8245 123.898C42.5525 123.65 42.3445 123.358 42.2005 123.022L43.2445 122.542C43.3565 122.846 43.5685 123.102 43.8805 123.31C44.2005 123.526 44.6005 123.634 45.0805 123.634C45.4485 123.634 45.7805 123.562 46.0765 123.418C46.3805 123.282 46.6205 123.074 46.7965 122.794C46.9725 122.522 47.0605 122.19 47.0605 121.798V120.346L47.2645 120.562C47.0405 121.002 46.7165 121.338 46.2925 121.57C45.8765 121.802 45.4165 121.918 44.9125 121.918C44.3045 121.918 43.7605 121.778 43.2805 121.498C42.8005 121.21 42.4245 120.822 42.1525 120.334C41.8805 119.838 41.7445 119.29 41.7445 118.69C41.7445 118.082 41.8805 117.534 42.1525 117.046C42.4245 116.558 42.7965 116.174 43.2685 115.894C43.7485 115.606 44.2925 115.462 44.9005 115.462C45.4045 115.462 45.8605 115.578 46.2685 115.81C46.6845 116.034 47.0165 116.346 47.2645 116.746L47.0965 117.046V115.606H48.1885V121.798C48.1885 122.358 48.0565 122.858 47.7925 123.298C47.5285 123.738 47.1605 124.082 46.6885 124.33C46.2245 124.586 45.6925 124.714 45.0925 124.714ZM45.0085 120.838C45.3925 120.838 45.7365 120.742 46.0405 120.55C46.3525 120.358 46.6005 120.102 46.7845 119.782C46.9685 119.454 47.0605 119.09 47.0605 118.69C47.0605 118.298 46.9685 117.938 46.7845 117.61C46.6005 117.282 46.3525 117.022 46.0405 116.83C45.7365 116.638 45.3925 116.542 45.0085 116.542C44.6165 116.542 44.2605 116.638 43.9405 116.83C43.6205 117.022 43.3685 117.282 43.1845 117.61C43.0085 117.93 42.9205 118.29 42.9205 118.69C42.9205 119.09 43.0085 119.454 43.1845 119.782C43.3685 120.102 43.6165 120.358 43.9285 120.55C44.2485 120.742 44.6085 120.838 45.0085 120.838ZM51.8147 122.218C51.3907 122.218 51.0147 122.142 50.6867 121.99C50.3667 121.83 50.1147 121.614 49.9307 121.342C49.7467 121.062 49.6547 120.742 49.6547 120.382C49.6547 120.038 49.7267 119.73 49.8707 119.458C50.0227 119.178 50.2547 118.942 50.5667 118.75C50.8867 118.558 51.2867 118.422 51.7667 118.342L54.1667 117.946V118.882L52.0187 119.242C51.6027 119.314 51.2987 119.446 51.1067 119.638C50.9227 119.83 50.8307 120.066 50.8307 120.346C50.8307 120.61 50.9347 120.83 51.1427 121.006C51.3587 121.182 51.6267 121.27 51.9467 121.27C52.3547 121.27 52.7067 121.186 53.0027 121.018C53.3067 120.842 53.5427 120.606 53.7107 120.31C53.8867 120.014 53.9747 119.686 53.9747 119.326V117.682C53.9747 117.33 53.8427 117.046 53.5787 116.83C53.3227 116.606 52.9827 116.494 52.5587 116.494C52.1907 116.494 51.8627 116.59 51.5747 116.782C51.2947 116.966 51.0867 117.214 50.9507 117.526L49.9787 117.022C50.0987 116.726 50.2907 116.462 50.5547 116.23C50.8187 115.99 51.1267 115.802 51.4787 115.666C51.8307 115.53 52.1987 115.462 52.5827 115.462C53.0787 115.462 53.5147 115.558 53.8907 115.75C54.2667 115.934 54.5587 116.194 54.7667 116.53C54.9827 116.858 55.0907 117.242 55.0907 117.682V122.074H53.9987V120.85L54.2027 120.922C54.0667 121.178 53.8827 121.402 53.6507 121.594C53.4187 121.786 53.1467 121.938 52.8347 122.05C52.5227 122.162 52.1827 122.218 51.8147 122.218ZM59.3318 122.146C58.6998 122.146 58.2118 121.966 57.8678 121.606C57.5318 121.246 57.3638 120.738 57.3638 120.082V116.674H56.1878V115.606H56.4278C56.7158 115.606 56.9438 115.518 57.1118 115.342C57.2798 115.166 57.3638 114.934 57.3638 114.646V114.118H58.4798V115.606H59.9318V116.674H58.4798V120.046C58.4798 120.262 58.5118 120.45 58.5758 120.61C58.6478 120.77 58.7638 120.898 58.9238 120.994C59.0838 121.082 59.2958 121.126 59.5598 121.126C59.6158 121.126 59.6838 121.122 59.7638 121.114C59.8518 121.106 59.9318 121.098 60.0038 121.09V122.074C59.8998 122.098 59.7838 122.114 59.6558 122.122C59.5278 122.138 59.4198 122.146 59.3318 122.146ZM61.4617 122.074V115.606H62.5777V122.074H61.4617ZM61.4617 114.574V113.134H62.5777V114.574H61.4617ZM66.1093 122.074L63.5773 115.606H64.8253L66.8533 121.078H66.4213L68.4613 115.606H69.7093L67.1653 122.074H66.1093ZM73.5666 122.218C72.9426 122.218 72.3866 122.07 71.8986 121.774C71.4106 121.478 71.0266 121.074 70.7466 120.562C70.4666 120.042 70.3266 119.462 70.3266 118.822C70.3266 118.174 70.4626 117.598 70.7346 117.094C71.0146 116.59 71.3906 116.194 71.8626 115.906C72.3426 115.61 72.8786 115.462 73.4706 115.462C73.9506 115.462 74.3746 115.55 74.7426 115.726C75.1186 115.894 75.4346 116.126 75.6906 116.422C75.9546 116.71 76.1546 117.042 76.2906 117.418C76.4346 117.786 76.5066 118.17 76.5066 118.57C76.5066 118.658 76.4986 118.758 76.4826 118.87C76.4746 118.974 76.4626 119.074 76.4466 119.17H71.1426V118.21H75.7986L75.2706 118.642C75.3426 118.226 75.3026 117.854 75.1506 117.526C74.9986 117.198 74.7746 116.938 74.4786 116.746C74.1826 116.554 73.8466 116.458 73.4706 116.458C73.0946 116.458 72.7506 116.554 72.4386 116.746C72.1266 116.938 71.8826 117.214 71.7066 117.574C71.5386 117.926 71.4706 118.346 71.5026 118.834C71.4706 119.306 71.5426 119.722 71.7186 120.082C71.9026 120.434 72.1586 120.71 72.4866 120.91C72.8226 121.102 73.1866 121.198 73.5786 121.198C74.0106 121.198 74.3746 121.098 74.6706 120.898C74.9666 120.698 75.2066 120.442 75.3906 120.13L76.3266 120.61C76.1986 120.906 75.9986 121.178 75.7266 121.426C75.4626 121.666 75.1466 121.858 74.7786 122.002C74.4186 122.146 74.0146 122.218 73.5666 122.218ZM81.1159 122.074L80.0839 121.006H85.1599L84.6559 121.522V116.446L85.7239 117.478V121.678L85.3279 122.074H81.1159ZM84.4399 121.594L79.8679 117.022L80.6239 116.266L85.1959 120.838L84.4399 121.594Z" fill="white"/>
<path d="M145.992 90.0547C151.515 90.0547 155.992 85.5775 155.992 80.0547C155.992 74.5318 151.515 70.0547 145.992 70.0547C140.469 70.0547 135.992 74.5318 135.992 80.0547C135.992 85.5775 140.469 90.0547 145.992 90.0547Z" fill="white" stroke="white" stroke-width="2" stroke-linecap="round" stroke-linejoin="round"/>
<path d="M141.992 83.0547H149.992" stroke="#262E40" stroke-width="2" stroke-linecap="round" stroke-linejoin="round"/>
<path d="M142.992 77.0547H143.002" stroke="#262E40" stroke-width="2" stroke-linecap="round" stroke-linejoin="round"/>
<path d="M148.992 77.0547H149.002" stroke="#262E40" stroke-width="2" stroke-linecap="round" stroke-linejoin="round"/>
<circle cx="146" cy="80.037" r="17.5" transform="rotate(-179.893 146 80.037)" stroke="#444C5C" stroke-width="5"/>
<path d="M145 62.5C155.5 62 163.5 70.0993 163.5 80" stroke="#A4A7AF" stroke-width="5" stroke-linecap="round"/>
<path d="M120.406 122.074V113.134H121.39L126.526 120.358L126.082 120.406V113.134H127.27V122.074H126.286L121.174 114.802L121.582 114.754V122.074H120.406ZM132.11 122.218C131.486 122.218 130.93 122.07 130.442 121.774C129.954 121.478 129.57 121.074 129.29 120.562C129.01 120.042 128.87 119.462 128.87 118.822C128.87 118.174 129.006 117.598 129.278 117.094C129.558 116.59 129.934 116.194 130.406 115.906C130.886 115.61 131.422 115.462 132.014 115.462C132.494 115.462 132.918 115.55 133.286 115.726C133.662 115.894 133.978 116.126 134.234 116.422C134.498 116.71 134.698 117.042 134.834 117.418C134.978 117.786 135.05 118.17 135.05 118.57C135.05 118.658 135.042 118.758 135.026 118.87C135.018 118.974 135.006 119.074 134.99 119.17H129.686V118.21H134.342L133.814 118.642C133.886 118.226 133.846 117.854 133.694 117.526C133.542 117.198 133.318 116.938 133.022 116.746C132.726 116.554 132.39 116.458 132.014 116.458C131.638 116.458 131.294 116.554 130.982 116.746C130.67 116.938 130.426 117.214 130.25 117.574C130.082 117.926 130.014 118.346 130.046 118.834C130.014 119.306 130.086 119.722 130.262 120.082C130.446 120.434 130.702 120.71 131.03 120.91C131.366 121.102 131.73 121.198 132.122 121.198C132.554 121.198 132.918 121.098 133.214 120.898C133.51 120.698 133.75 120.442 133.934 120.13L134.87 120.61C134.742 120.906 134.542 121.178 134.27 121.426C134.006 121.666 133.69 121.858 133.322 122.002C132.962 122.146 132.558 122.218 132.11 122.218ZM138.797 122.218C138.333 122.218 137.913 122.11 137.537 121.894C137.169 121.678 136.881 121.378 136.673 120.994C136.473 120.602 136.373 120.154 136.373 119.65V115.606H137.489V119.53C137.489 119.85 137.553 120.13 137.681 120.37C137.817 120.61 138.001 120.798 138.233 120.934C138.473 121.07 138.745 121.138 139.049 121.138C139.353 121.138 139.621 121.07 139.853 120.934C140.093 120.798 140.277 120.602 140.405 120.346C140.541 120.09 140.609 119.786 140.609 119.434V115.606H141.737V122.074H140.645V120.814L140.825 120.922C140.673 121.33 140.413 121.65 140.045 121.882C139.685 122.106 139.269 122.218 138.797 122.218ZM146.094 122.146C145.462 122.146 144.974 121.966 144.63 121.606C144.294 121.246 144.126 120.738 144.126 120.082V116.674H142.95V115.606H143.19C143.478 115.606 143.706 115.518 143.874 115.342C144.042 115.166 144.126 114.934 144.126 114.646V114.118H145.242V115.606H146.694V116.674H145.242V120.046C145.242 120.262 145.274 120.45 145.338 120.61C145.41 120.77 145.526 120.898 145.686 120.994C145.846 121.082 146.058 121.126 146.322 121.126C146.378 121.126 146.446 121.122 146.526 121.114C146.614 121.106 146.694 121.098 146.766 121.09V122.074C146.662 122.098 146.546 122.114 146.418 122.122C146.29 122.138 146.182 122.146 146.094 122.146ZM148.223 122.074V115.606H149.315V116.794L149.195 116.626C149.347 116.258 149.579 115.986 149.891 115.81C150.203 115.626 150.583 115.534 151.031 115.534H151.427V116.59H150.863C150.407 116.59 150.039 116.734 149.759 117.022C149.479 117.302 149.339 117.702 149.339 118.222V122.074H148.223ZM154.315 122.218C153.891 122.218 153.515 122.142 153.187 121.99C152.867 121.83 152.615 121.614 152.431 121.342C152.247 121.062 152.155 120.742 152.155 120.382C152.155 120.038 152.227 119.73 152.371 119.458C152.523 119.178 152.755 118.942 153.067 118.75C153.387 118.558 153.787 118.422 154.267 118.342L156.667 117.946V118.882L154.519 119.242C154.103 119.314 153.799 119.446 153.607 119.638C153.423 119.83 153.331 120.066 153.331 120.346C153.331 120.61 153.435 120.83 153.643 121.006C153.859 121.182 154.127 121.27 154.447 121.27C154.855 121.27 155.207 121.186 155.503 121.018C155.807 120.842 156.043 120.606 156.211 120.31C156.387 120.014 156.475 119.686 156.475 119.326V117.682C156.475 117.33 156.343 117.046 156.079 116.83C155.823 116.606 155.483 116.494 155.059 116.494C154.691 116.494 154.363 116.59 154.075 116.782C153.795 116.966 153.587 117.214 153.451 117.526L152.479 117.022C152.599 116.726 152.791 116.462 153.055 116.23C153.319 115.99 153.627 115.802 153.979 115.666C154.331 115.53 154.699 115.462 155.083 115.462C155.579 115.462 156.015 115.558 156.391 115.75C156.767 115.934 157.059 116.194 157.267 116.53C157.483 116.858 157.591 117.242 157.591 117.682V122.074H156.499V120.85L156.703 120.922C156.567 121.178 156.383 121.402 156.151 121.594C155.919 121.786 155.647 121.938 155.335 122.05C155.023 122.162 154.683 122.218 154.315 122.218ZM159.321 122.074V112.99H160.437V122.074H159.321ZM167.217 116.398H171.429L171.789 116.758V120.958L170.889 121.858V116.878L171.297 117.298H166.317L167.217 116.398ZM170.685 116.806L171.321 117.442L166.689 122.074L166.053 121.438L170.685 116.806Z" fill="white"/>
<path d="M233 90C238.523 90 243 85.5228 243 80C243 74.4772 238.523 70 233 70C227.477 70 223 74.4772 223 80C223 85.5228 227.477 90 233 90Z" fill="white" stroke="white" stroke-width="2" stroke-linecap="round" stroke-linejoin="round"/>
<path d="M229 82C229 82 230.5 84 233 84C235.5 84 237 82 237 82" stroke="#262E40" stroke-width="2" stroke-linecap="round" stroke-linejoin="round"/>
<path d="M230 77H230.01" stroke="#262E40" stroke-width="2" stroke-linecap="round" stroke-linejoin="round"/>
<path d="M236 77H236.01" stroke="#262E40" stroke-width="2" stroke-linecap="round" stroke-linejoin="round"/>
<circle cx="233" cy="80.037" r="17.5" transform="rotate(-179.893 233 80.037)" stroke="#444C5C" stroke-width="5"/>
<path d="M233 62.5C242.944 62.5 250.5 70.5 250.5 80C250.5 89.8986 242 97.5 234 97.5" stroke="#61FF8D" stroke-width="5" stroke-linecap="round"/>
<path d="M206.789 122.074V113.134H209.945C210.537 113.134 211.057 113.246 211.505 113.47C211.953 113.694 212.301 114.014 212.549 114.43C212.805 114.846 212.933 115.334 212.933 115.894C212.933 116.454 212.805 116.942 212.549 117.358C212.301 117.766 211.953 118.086 211.505 118.318C211.065 118.542 210.545 118.654 209.945 118.654H207.965V122.074H206.789ZM207.965 117.574H209.981C210.341 117.574 210.653 117.506 210.917 117.37C211.181 117.234 211.385 117.038 211.529 116.782C211.673 116.526 211.745 116.23 211.745 115.894C211.745 115.55 211.673 115.254 211.529 115.006C211.385 114.75 211.181 114.554 210.917 114.418C210.653 114.282 210.341 114.214 209.981 114.214H207.965V117.574ZM217.229 122.218C216.605 122.218 216.041 122.074 215.537 121.786C215.033 121.49 214.633 121.086 214.337 120.574C214.041 120.062 213.893 119.482 213.893 118.834C213.893 118.186 214.037 117.61 214.325 117.106C214.621 116.602 215.021 116.202 215.525 115.906C216.029 115.61 216.597 115.462 217.229 115.462C217.853 115.462 218.417 115.61 218.921 115.906C219.425 116.194 219.821 116.59 220.109 117.094C220.405 117.598 220.553 118.178 220.553 118.834C220.553 119.49 220.401 120.074 220.097 120.586C219.793 121.09 219.389 121.49 218.885 121.786C218.389 122.074 217.837 122.218 217.229 122.218ZM217.229 121.138C217.629 121.138 217.989 121.038 218.309 120.838C218.637 120.638 218.893 120.362 219.077 120.01C219.269 119.658 219.365 119.266 219.365 118.834C219.365 118.394 219.269 118.006 219.077 117.67C218.893 117.326 218.637 117.054 218.309 116.854C217.989 116.646 217.629 116.542 217.229 116.542C216.821 116.542 216.453 116.646 216.125 116.854C215.805 117.054 215.549 117.326 215.357 117.67C215.165 118.006 215.069 118.394 215.069 118.834C215.069 119.266 215.165 119.658 215.357 120.01C215.549 120.362 215.805 120.638 216.125 120.838C216.453 121.038 216.821 121.138 217.229 121.138ZM224.325 122.218C223.677 122.218 223.113 122.058 222.633 121.738C222.153 121.418 221.813 120.986 221.613 120.442L222.501 120.01C222.685 120.394 222.937 120.698 223.257 120.922C223.577 121.146 223.933 121.258 224.325 121.258C224.677 121.258 224.969 121.174 225.201 121.006C225.433 120.838 225.549 120.618 225.549 120.346C225.549 120.154 225.493 120.002 225.381 119.89C225.277 119.77 225.149 119.678 224.997 119.614C224.845 119.542 224.705 119.49 224.577 119.458L223.605 119.182C223.021 119.014 222.593 118.774 222.321 118.462C222.057 118.15 221.925 117.786 221.925 117.37C221.925 116.986 222.021 116.654 222.213 116.374C222.413 116.086 222.681 115.862 223.017 115.702C223.361 115.542 223.745 115.462 224.169 115.462C224.737 115.462 225.245 115.606 225.693 115.894C226.149 116.182 226.473 116.586 226.665 117.106L225.753 117.526C225.609 117.19 225.393 116.926 225.105 116.734C224.817 116.534 224.493 116.434 224.133 116.434C223.805 116.434 223.545 116.518 223.353 116.686C223.161 116.846 223.065 117.05 223.065 117.298C223.065 117.482 223.113 117.634 223.209 117.754C223.305 117.866 223.421 117.954 223.557 118.018C223.693 118.074 223.825 118.122 223.953 118.162L225.009 118.474C225.537 118.626 225.945 118.862 226.233 119.182C226.529 119.502 226.677 119.886 226.677 120.334C226.677 120.694 226.577 121.018 226.377 121.306C226.177 121.594 225.901 121.818 225.549 121.978C225.197 122.138 224.789 122.218 224.325 122.218ZM228.137 122.074V115.606H229.253V122.074H228.137ZM228.137 114.574V113.134H229.253V114.574H228.137ZM233.613 122.146C232.981 122.146 232.493 121.966 232.149 121.606C231.813 121.246 231.645 120.738 231.645 120.082V116.674H230.469V115.606H230.709C230.997 115.606 231.225 115.518 231.393 115.342C231.561 115.166 231.645 114.934 231.645 114.646V114.118H232.761V115.606H234.213V116.674H232.761V120.046C232.761 120.262 232.793 120.45 232.857 120.61C232.929 120.77 233.045 120.898 233.205 120.994C233.365 121.082 233.577 121.126 233.841 121.126C233.897 121.126 233.965 121.122 234.045 121.114C234.133 121.106 234.213 121.098 234.285 121.09V122.074C234.181 122.098 234.065 122.114 233.937 122.122C233.809 122.138 233.701 122.146 233.613 122.146ZM235.743 122.074V115.606H236.859V122.074H235.743ZM235.743 114.574V113.134H236.859V114.574H235.743ZM240.391 122.074L237.859 115.606H239.107L241.135 121.078H240.703L242.743 115.606H243.991L241.447 122.074H240.391ZM247.848 122.218C247.224 122.218 246.668 122.07 246.18 121.774C245.692 121.478 245.308 121.074 245.028 120.562C244.748 120.042 244.608 119.462 244.608 118.822C244.608 118.174 244.744 117.598 245.016 117.094C245.296 116.59 245.672 116.194 246.144 115.906C246.624 115.61 247.16 115.462 247.752 115.462C248.232 115.462 248.656 115.55 249.024 115.726C249.4 115.894 249.716 116.126 249.972 116.422C250.236 116.71 250.436 117.042 250.572 117.418C250.716 117.786 250.788 118.17 250.788 118.57C250.788 118.658 250.78 118.758 250.764 118.87C250.756 118.974 250.744 119.074 250.728 119.17H245.424V118.21H250.08L249.552 118.642C249.624 118.226 249.584 117.854 249.432 117.526C249.28 117.198 249.056 116.938 248.76 116.746C248.464 116.554 248.128 116.458 247.752 116.458C247.376 116.458 247.032 116.554 246.72 116.746C246.408 116.938 246.164 117.214 245.988 117.574C245.82 117.926 245.752 118.346 245.784 118.834C245.752 119.306 245.824 119.722 246 120.082C246.184 120.434 246.44 120.71 246.768 120.91C247.104 121.102 247.468 121.198 247.86 121.198C248.292 121.198 248.656 121.098 248.952 120.898C249.248 120.698 249.488 120.442 249.672 120.13L250.608 120.61C250.48 120.906 250.28 121.178 250.008 121.426C249.744 121.666 249.428 121.858 249.06 122.002C248.7 122.146 248.296 122.218 247.848 122.218ZM255.217 116.398H259.429L259.789 116.758V120.958L258.889 121.858V116.878L259.297 117.298H254.317L255.217 116.398ZM258.685 116.806L259.321 117.442L254.689 122.074L254.053 121.438L258.685 116.806Z" fill="white"/>
</svg>
